<svg width="296.999" height="296.999" xmlns="http://www.w3.org/2000/svg" xml:space="preserve" version="1.1">

 <g>
  <title>Layer 1</title>
  <g id="svg_1">
   <g id="svg_2">
    <g id="svg_3">
     <path fill="#ffffff" id="svg_4" d="m45.432,35.049c-0.008,0 -0.017,0 -0.025,0c-2.809,0 -5.451,1.095 -7.446,3.085c-2.017,2.012 -3.128,4.691 -3.128,7.543l0,159.365c0,5.844 4.773,10.61 10.641,10.625c24.738,0.059 66.184,5.215 94.776,35.136l0,-166.78c0,-1.981 -0.506,-3.842 -1.461,-5.382c-23.467,-37.792 -68.563,-43.534 -93.357,-43.592z"/>
     <path fill="#ffffff" id="svg_5" d="m262.167,205.042l0,-159.366c0,-2.852 -1.111,-5.531 -3.128,-7.543c-1.995,-1.99 -4.639,-3.085 -7.445,-3.085c-0.009,0 -0.018,0 -0.026,0c-24.793,0.059 -69.889,5.801 -93.357,43.593c-0.955,1.54 -1.46,3.401 -1.46,5.382l0,166.779c28.592,-29.921 70.038,-35.077 94.776,-35.136c5.867,-0.015 10.64,-4.781 10.64,-10.624z"/>
     <path fill="#ffffff" id="svg_6" d="m286.373,71.801l-7.706,0l0,133.241c0,14.921 -12.157,27.088 -27.101,27.125c-20.983,0.05 -55.581,4.153 -80.084,27.344c42.378,-10.376 87.052,-3.631 112.512,2.171c3.179,0.724 6.464,-0.024 9.011,-2.054c2.538,-2.025 3.994,-5.052 3.994,-8.301l0,-168.9c0.001,-5.859 -4.767,-10.626 -10.626,-10.626z"/>
     <path fill="#ffffff" id="svg_7" d="m18.332,205.042l0,-133.241l-7.706,0c-5.858,0 -10.626,4.767 -10.626,10.626l0,168.897c0,3.25 1.456,6.276 3.994,8.301c2.545,2.029 5.827,2.78 9.011,2.054c25.46,-5.803 70.135,-12.547 112.511,-2.171c-24.502,-23.19 -59.1,-27.292 -80.083,-27.342c-14.943,-0.036 -27.101,-12.203 -27.101,-27.124z"/>
    </g>
   </g>
  </g>
  <g id="svg_8"/>
  <g id="svg_9"/>
  <g id="svg_10"/>
  <g id="svg_11"/>
  <g id="svg_12"/>
  <g id="svg_13"/>
  <g id="svg_14"/>
  <g id="svg_15"/>
  <g id="svg_16"/>
  <g id="svg_17"/>
  <g id="svg_18"/>
  <g id="svg_19"/>
  <g id="svg_20"/>
  <g id="svg_21"/>
  <g id="svg_22"/>
 </g>
</svg>