<svg width="486.569" height="486.569" xmlns="http://www.w3.org/2000/svg" xml:space="preserve" version="1.1">

 <g>
  <title>Layer 1</title>
  <g fill="white" id="svg_1">
   <path id="svg_2" d="m146.069,320.369l268.1,0c30.4,0 55.2,-24.8 55.2,-55.2l0,-112.8c0,-0.1 0,-0.3 0,-0.4c0,-0.3 0,-0.5 0,-0.8c0,-0.2 0,-0.4 -0.1,-0.6c0,-0.2 -0.1,-0.5 -0.1,-0.7s-0.1,-0.4 -0.1,-0.6c-0.1,-0.2 -0.1,-0.4 -0.2,-0.7c-0.1,-0.2 -0.1,-0.4 -0.2,-0.6c-0.1,-0.2 -0.1,-0.4 -0.2,-0.6c-0.1,-0.2 -0.2,-0.4 -0.3,-0.7c-0.1,-0.2 -0.2,-0.4 -0.3,-0.5c-0.1,-0.2 -0.2,-0.4 -0.3,-0.6c-0.1,-0.2 -0.2,-0.3 -0.3,-0.5c-0.1,-0.2 -0.3,-0.4 -0.4,-0.6c-0.1,-0.2 -0.2,-0.3 -0.4,-0.5c-0.1,-0.2 -0.3,-0.3 -0.4,-0.5s-0.3,-0.3 -0.4,-0.5s-0.3,-0.3 -0.4,-0.4c-0.2,-0.2 -0.3,-0.3 -0.5,-0.5c-0.2,-0.1 -0.3,-0.3 -0.5,-0.4c-0.2,-0.1 -0.4,-0.3 -0.6,-0.4c-0.2,-0.1 -0.3,-0.2 -0.5,-0.3s-0.4,-0.2 -0.6,-0.4c-0.2,-0.1 -0.4,-0.2 -0.6,-0.3s-0.4,-0.2 -0.6,-0.3s-0.4,-0.2 -0.6,-0.3s-0.4,-0.1 -0.6,-0.2c-0.2,-0.1 -0.5,-0.2 -0.7,-0.2s-0.4,-0.1 -0.5,-0.1c-0.3,-0.1 -0.5,-0.1 -0.8,-0.1c-0.1,0 -0.2,-0.1 -0.4,-0.1l-339.8,-46.9l0,-47.4c0,-0.5 0,-1 -0.1,-1.4c0,-0.1 0,-0.2 -0.1,-0.4c0,-0.3 -0.1,-0.6 -0.1,-0.9c-0.1,-0.3 -0.1,-0.5 -0.2,-0.8c0,-0.2 -0.1,-0.3 -0.1,-0.5c-0.1,-0.3 -0.2,-0.6 -0.3,-0.9c0,-0.1 -0.1,-0.3 -0.1,-0.4c-0.1,-0.3 -0.2,-0.5 -0.4,-0.8c-0.1,-0.1 -0.1,-0.3 -0.2,-0.4c-0.1,-0.2 -0.2,-0.4 -0.4,-0.6c-0.1,-0.2 -0.2,-0.3 -0.3,-0.5s-0.2,-0.3 -0.3,-0.5s-0.3,-0.4 -0.4,-0.6c-0.1,-0.1 -0.2,-0.2 -0.3,-0.3c-0.2,-0.2 -0.4,-0.4 -0.6,-0.6c-0.1,-0.1 -0.2,-0.2 -0.3,-0.3c-0.2,-0.2 -0.4,-0.4 -0.7,-0.6c-0.1,-0.1 -0.3,-0.2 -0.4,-0.3c-0.2,-0.2 -0.4,-0.3 -0.6,-0.5c-0.3,-0.2 -0.6,-0.4 -0.8,-0.5c-0.1,-0.1 -0.2,-0.1 -0.3,-0.2c-0.4,-0.2 -0.9,-0.4 -1.3,-0.6l-73.7,-31c-6.9,-2.9 -14.8,0.3 -17.7,7.2s0.3,14.8 7.2,17.7l65.4,27.6l0,61.2l0,9.7l0,74.4l0,66.5l0,84c0,28 21,51.2 48.1,54.7c-4.9,8.2 -7.8,17.8 -7.8,28c0,30.1 24.5,54.5 54.5,54.5s54.5,-24.5 54.5,-54.5c0,-10 -2.7,-19.5 -7.5,-27.5l121.4,0c-4.8,8.1 -7.5,17.5 -7.5,27.5c0,30.1 24.5,54.5 54.5,54.5s54.5,-24.5 54.5,-54.5s-24.5,-54.5 -54.5,-54.5l-255,0c-15.6,0 -28.2,-12.7 -28.2,-28.2l0,-36.6c8.2,4.8 17.9,7.6 28.2,7.6zm67.2,111.6c0,15.2 -12.4,27.5 -27.5,27.5s-27.5,-12.4 -27.5,-27.5s12.4,-27.5 27.5,-27.5s27.5,12.3 27.5,27.5zm215.4,0c0,15.2 -12.4,27.5 -27.5,27.5s-27.5,-12.4 -27.5,-27.5s12.4,-27.5 27.5,-27.5s27.5,12.3 27.5,27.5zm-14.5,-138.6l-268.1,0c-15.6,0 -28.2,-12.7 -28.2,-28.2l0,-66.5l0,-74.4l0,-5l324.5,44.7l0,101.1c0,15.7 -12.7,28.3 -28.2,28.3z"/>
  </g>
  <g id="svg_3"/>
  <g id="svg_4"/>
  <g id="svg_5"/>
  <g id="svg_6"/>
  <g id="svg_7"/>
  <g id="svg_8"/>
  <g id="svg_9"/>
  <g id="svg_10"/>
  <g id="svg_11"/>
  <g id="svg_12"/>
  <g id="svg_13"/>
  <g id="svg_14"/>
  <g id="svg_15"/>
  <g id="svg_16"/>
  <g id="svg_17"/>
 </g>
</svg>